<svg xmlns="http://www.w3.org/2000/svg"  viewBox="0 0 48 48" width="50px" height="50px"><path d="M 24.111328 3.0058594 C 23.033846 2.9991094 21.954092 3.3754247 21.101562 4.1367188 L 20.095703 5.0332031 L 18.779297 4.7421875 C 16.547664 4.2471 14.274909 5.5395608 13.558594 7.7109375 L 13.136719 8.9921875 L 11.849609 9.3964844 C 9.6685737 10.083592 8.3456364 12.340276 8.8105469 14.578125 L 9.0859375 15.898438 L 8.1757812 16.892578 A 1.50015 1.50015 0 0 0 8.1738281 16.892578 C 6.6310144 18.578909 6.6141305 21.193378 8.1367188 22.898438 L 9.0332031 23.904297 L 8.7421875 25.220703 C 8.3976025 26.773927 8.9327567 28.334239 10.013672 29.388672 L 4.4394531 34.962891 A 1.50015 1.50015 0 0 0 5.0507812 37.455078 L 10.921875 39.298828 L 12.535156 44.914062 A 1.50015 1.50015 0 0 0 15.037109 45.560547 L 23.470703 37.126953 A 1.50015 1.50015 0 0 0 23.609375 36.966797 C 23.859341 36.983824 24.107933 36.979461 24.357422 36.955078 L 32.962891 45.560547 A 1.50015 1.50015 0 0 0 35.464844 44.914062 L 37.078125 39.298828 L 42.949219 37.455078 A 1.50015 1.50015 0 0 0 43.560547 34.962891 L 38.019531 29.421875 C 39.010333 28.384779 39.497496 26.904642 39.189453 25.421875 L 38.914062 24.101562 L 39.826172 23.107422 C 41.368986 21.421091 41.385868 18.806622 39.863281 17.101562 L 38.966797 16.095703 L 39.257812 14.78125 C 39.7529 12.549617 38.460439 10.274909 36.289062 9.5585938 L 35.007812 9.1367188 L 34.603516 7.8515625 C 33.917045 5.6695137 31.660305 4.3474688 29.421875 4.8125 L 28.101562 5.0878906 L 27.107422 4.1757812 A 1.50015 1.50015 0 0 0 27.107422 4.1738281 C 26.264256 3.4024182 25.18881 3.0126133 24.111328 3.0058594 z M 24.091797 5.9941406 C 24.444315 5.9963906 24.797197 6.1280787 25.082031 6.3886719 L 26.640625 7.8183594 A 1.50015 1.50015 0 0 0 27.960938 8.1796875 L 30.03125 7.75 C 30.78682 7.5930312 31.510658 8.0160019 31.742188 8.7519531 L 32.378906 10.771484 A 1.50015 1.50015 0 0 0 33.339844 11.746094 L 35.349609 12.408203 C 36.082233 12.649888 36.496991 13.378493 36.330078 14.130859 L 35.871094 16.197266 A 1.50015 1.50015 0 0 0 36.216797 17.521484 L 37.626953 19.099609 C 38.140365 19.67455 38.134466 20.512362 37.613281 21.082031 L 36.183594 22.642578 A 1.50015 1.50015 0 0 0 35.822266 23.960938 L 36.251953 26.033203 C 36.406275 26.780989 35.992153 27.496168 35.269531 27.734375 A 1.50015 1.50015 0 0 0 35.126953 27.78125 L 33.230469 28.378906 A 1.50015 1.50015 0 0 0 32.255859 29.339844 L 31.59375 31.349609 C 31.352065 32.082233 30.62346 32.496991 29.871094 32.330078 L 27.804688 31.871094 A 1.50015 1.50015 0 0 0 26.482422 32.216797 L 24.902344 33.625 A 1.50015 1.50015 0 0 0 24.900391 33.625 C 24.326134 34.137801 23.489549 34.132621 22.919922 33.613281 L 22.917969 33.611328 L 21.357422 32.183594 A 1.50015 1.50015 0 0 0 20.039062 31.820312 L 17.96875 32.251953 C 17.21318 32.408922 16.489342 31.983998 16.257812 31.248047 L 15.621094 29.228516 A 1.50015 1.50015 0 0 0 14.660156 28.255859 L 12.650391 27.591797 C 11.917767 27.350112 11.503009 26.621507 11.669922 25.869141 L 12.128906 23.802734 A 1.50015 1.50015 0 0 0 11.783203 22.480469 L 10.375 20.902344 A 1.50015 1.50015 0 0 0 10.375 20.900391 C 9.8621989 20.326134 9.8673786 19.489549 10.386719 18.919922 L 10.388672 18.917969 L 11.816406 17.357422 A 1.50015 1.50015 0 0 0 12.179688 16.039062 L 11.748047 13.96875 L 11.748047 13.966797 C 11.592269 13.21197 12.016668 12.489134 12.751953 12.257812 L 14.771484 11.621094 A 1.50015 1.50015 0 0 0 15.744141 10.660156 L 16.408203 8.6503906 C 16.649888 7.9177673 17.378493 7.5030094 18.130859 7.6699219 L 20.197266 8.1289062 A 1.50015 1.50015 0 0 0 21.519531 7.7832031 L 23.097656 6.375 A 1.50015 1.50015 0 0 0 23.099609 6.375 C 23.38708 6.1182939 23.739279 5.9918946 24.091797 5.9941406 z M 30.076172 15.880859 A 1.50015 1.50015 0 0 0 29.044922 16.333984 L 22.333984 23.044922 L 18.955078 19.666016 A 1.50015 1.50015 0 1 0 16.833984 21.787109 L 21.273438 26.228516 A 1.50015 1.50015 0 0 0 23.396484 26.228516 L 31.166016 18.455078 A 1.50015 1.50015 0 0 0 30.076172 15.880859 z M 12.833984 30.810547 L 12.992188 30.863281 L 13.396484 32.150391 C 14.083592 34.331427 16.340276 35.654364 18.578125 35.189453 L 19.898438 34.914062 L 20.703125 35.652344 L 14.714844 41.640625 L 13.582031 37.695312 A 1.50015 1.50015 0 0 0 12.589844 36.679688 L 8.3085938 35.335938 L 12.833984 30.810547 z M 35.244141 30.888672 L 39.691406 35.335938 L 35.410156 36.679688 A 1.50015 1.50015 0 0 0 34.417969 37.695312 L 33.285156 41.640625 L 27.220703 35.576172 L 27.904297 34.966797 L 29.220703 35.257812 C 31.452336 35.752901 33.727044 34.46044 34.443359 32.289062 L 34.865234 31.007812 L 35.244141 30.888672 z"/></svg>